<?xml version="1.0"?>
<svg xmlns="http://www.w3.org/2000/svg" xmlns:xlink="http://www.w3.org/1999/xlink" xmlns:svgjs="http://svgjs.com/svgjs" version="1.1" width="512" height="512" x="0" y="0" viewBox="0 0 128 128" style="enable-background:new 0 0 512 512" xml:space="preserve" class=""><g transform="matrix(1.4999999999999998,0,0,1.4999999999999998,-32.00693702697751,-32.00024890899657)"><linearGradient xmlns="http://www.w3.org/2000/svg" id="a" gradientUnits="userSpaceOnUse" x1="91.579" x2="36.421" y1="95.052" y2="39.895"><stop stop-opacity="1" stop-color="#ff4b2b" offset="0"/><stop stop-opacity="1" stop-color="#ff416c" offset="1"/></linearGradient><path xmlns="http://www.w3.org/2000/svg" d="m30.618 48.866c.484-1.294.99-2.575 1.5-3.807a8.073 8.073 0 0 1 7.482-4.976h7.523a8.145 8.145 0 0 1 5.844 2.49l2.04 2.124a1.75 1.75 0 0 1 -2.524 2.425l-2.041-2.122a4.626 4.626 0 0 0 -3.32-1.415h-7.522a4.581 4.581 0 0 0 -4.246 2.823c-.5 1.193-.988 2.433-1.457 3.686a1.75 1.75 0 1 1 -3.278-1.226zm65.261-3.806a8.075 8.075 0 0 0 -7.479-4.977h-7.522a8.145 8.145 0 0 0 -5.844 2.49l-1.321 1.375a46.208 46.208 0 0 0 -9.691-.965c-.061 0-1.522-.017-3.509.108a1.75 1.75 0 1 0 .219 3.493c1.848-.116 3.233-.1 3.29-.1a39.8 39.8 0 0 1 9.722 1.1 1.75 1.75 0 0 0 1.774-.461l2.04-2.123a4.626 4.626 0 0 1 3.32-1.415h7.522a4.583 4.583 0 0 1 4.247 2.823c2.964 7.115 7.789 20.847 6.808 32.867-.391 4.78-2.32 5.031-2.954 5.113-2.479.32-6.722-1.927-11.085-5.867-4.028-3.639-7.557-8.2-8.579-11.09a1.75 1.75 0 1 0 -3.3 1.167c2.268 6.413 14.273 19.32 22.481 19.32a7.169 7.169 0 0 0 .933-.059c2.45-.318 5.479-2.016 5.991-8.3 1.044-12.759-3.977-27.091-7.063-34.499zm-26.462 21.081-5.454-.114-11.188.236a1.749 1.749 0 0 0 -1.613 1.166c-1.022 2.89-4.55 7.451-8.579 11.09-4.363 3.94-8.606 6.187-11.085 5.867-.634-.082-2.564-.333-2.954-5.113a54.363 54.363 0 0 1 1.324-15.635 1.75 1.75 0 0 0 -3.422-.735 57.778 57.778 0 0 0 -1.39 16.656c.512 6.281 3.541 7.98 5.991 8.3a7.18 7.18 0 0 0 .933.059c7.746 0 18.874-11.494 22.008-18.178l9.975-.212 5.38.114a1.75 1.75 0 1 0 .074-3.5zm-39.994-8.055a1.717 1.717 0 0 0 .5.075 1.752 1.752 0 0 0 1.677-1.249l.254-.84a1.75 1.75 0 1 0 -3.345-1.031l-.262.867a1.748 1.748 0 0 0 1.176 2.178zm54.72-8.607a2.579 2.579 0 1 0 2.579 2.579 2.579 2.579 0 0 0 -2.579-2.579zm0 8.633a2.58 2.58 0 1 0 2.579 2.579 2.579 2.579 0 0 0 -2.579-2.579zm-6.9-1.737a2.579 2.579 0 1 0 2.583-2.575 2.579 2.579 0 0 0 -2.579 2.575zm13.792 0a2.58 2.58 0 1 0 -2.58 2.579 2.579 2.579 0 0 0 2.584-2.579zm-48.017 6.06a2.267 2.267 0 0 0 2.267-2.267v-1.526h1.527a2.267 2.267 0 0 0 0-4.534h-1.523v-1.527a2.267 2.267 0 1 0 -4.534 0v1.527h-1.527a2.267 2.267 0 1 0 0 4.534h1.527v1.526a2.267 2.267 0 0 0 2.267 2.267z" fill="url(#a)" data-original="url(#a)" style=""/></g></svg>
